<?xml version="1.0" standalone="no"?>
<!DOCTYPE svg PUBLIC "-//W3C//DTD SVG 20010904//EN"
 "http://www.w3.org/TR/2001/REC-SVG-20010904/DTD/svg10.dtd">
<svg version="1.0" xmlns="http://www.w3.org/2000/svg"
 width="904.000000pt" height="904.000000pt" viewBox="0 0 904.000000 904.000000"
 preserveAspectRatio="xMidYMid meet">
<metadata>
Created by potrace 1.11, written by Peter Selinger 2001-2013
</metadata>
<g transform="translate(0.000000,904.000000) scale(0.100000,-0.100000)"
fill="#000000" stroke="none">
<path d="M3937 8584 c-1 -1 -18 -4 -37 -7 -89 -12 -173 -42 -253 -90 l-48 -30
-67 26 c-132 50 -179 59 -312 62 -249 4 -471 -132 -647 -395 -59 -89 -165
-313 -177 -375 -1 -5 -10 -32 -19 -60 -9 -27 -18 -61 -21 -75 -2 -14 -10 -47
-16 -75 -7 -27 -14 -63 -15 -80 -1 -16 -8 -57 -13 -90 -6 -33 -16 -89 -23
-125 -6 -36 -13 -74 -15 -85 -2 -11 -6 -32 -9 -47 -6 -33 -58 -173 -78 -212
-30 -57 -90 -131 -136 -168 -25 -21 -89 -56 -141 -79 -254 -108 -319 -163
-368 -310 -32 -96 -17 -302 29 -414 7 -16 13 -32 13 -35 4 -21 52 -128 63
-141 7 -8 13 -20 13 -25 1 -19 52 -45 90 -46 47 0 91 29 113 74 19 42 16 68
-21 148 -77 168 -59 285 62 404 64 63 74 71 191 150 187 126 312 298 380 518
26 86 31 108 41 158 4 21 11 57 20 95 1 6 5 24 8 40 11 57 16 80 22 108 3 16
7 38 9 50 2 12 8 40 14 62 5 22 12 51 14 65 13 66 59 234 86 308 86 237 224
397 371 430 37 8 180 7 215 -1 60 -15 135 -38 135 -41 0 -2 -19 -16 -42 -32
-50 -34 -45 -30 -124 -92 -191 -149 -361 -366 -430 -547 -8 -23 -7 -17 -24
-75 -15 -49 -15 -49 -26 -100 -10 -44 -11 -242 -1 -295 11 -63 50 -190 59
-193 4 -2 8 -10 8 -17 0 -8 12 -36 27 -62 14 -26 31 -57 37 -68 6 -10 17 -25
24 -33 6 -7 17 -23 23 -35 11 -20 56 -72 110 -126 137 -139 338 -247 557 -298
l32 -8 -65 -69 c-62 -65 -171 -183 -250 -271 -20 -22 -52 -61 -72 -87 -21 -27
-41 -48 -45 -48 -4 0 -8 -4 -8 -10 0 -9 -14 -29 -45 -64 -6 -6 -35 -49 -66
-96 -110 -167 -179 -310 -218 -455 -20 -73 -25 -96 -36 -175 -7 -45 -7 -227 0
-260 3 -14 10 -52 16 -85 16 -86 56 -209 97 -295 34 -72 111 -200 135 -225 7
-6 21 -24 32 -39 22 -31 25 -34 87 -91 74 -68 167 -133 243 -169 63 -29 177
-66 186 -60 5 3 9 0 9 -6 0 -6 4 -9 9 -6 4 3 23 1 42 -5 19 -5 86 -10 149 -11
l116 -1 0 -416 c-1 -229 3 -474 7 -546 5 -71 10 -152 11 -180 19 -300 49 -396
145 -451 44 -25 109 -38 250 -48 100 -7 134 24 146 129 9 82 7 105 -10 132
-14 20 -72 59 -85 56 -3 -1 -29 -4 -59 -8 -30 -4 -62 -8 -72 -10 -25 -5 -53
36 -76 110 -17 55 -18 101 -16 600 1 297 2 565 3 596 0 31 0 62 -2 69 -2 9 33
23 107 45 103 30 240 79 312 111 17 8 33 14 35 14 1 0 3 -102 3 -228 0 -125 4
-263 8 -307 13 -128 18 -169 22 -185 2 -8 7 -40 10 -70 3 -30 12 -86 20 -125
8 -38 17 -83 20 -100 2 -16 7 -41 10 -55 3 -14 8 -36 11 -50 3 -14 7 -33 10
-42 5 -17 11 -45 20 -88 3 -14 11 -46 19 -72 8 -27 11 -48 8 -48 -3 0 -1 -6 5
-12 5 -7 12 -26 15 -43 3 -16 11 -46 17 -65 6 -19 13 -47 15 -62 2 -15 9 -38
16 -50 7 -13 12 -24 11 -25 -2 -3 -2 -5 3 -20 1 -5 5 -21 10 -38 12 -46 52
-94 87 -103 51 -13 220 0 303 23 6 1 24 6 40 10 78 18 117 97 86 173 -7 16
-23 35 -35 42 -13 6 -31 29 -40 51 -32 73 -101 89 -198 46 l-55 -25 -51 207
c-28 113 -56 231 -62 261 -6 30 -13 66 -15 80 -6 28 -12 59 -19 110 -3 19 -8
45 -10 58 -3 13 -8 50 -11 83 -4 33 -8 69 -10 79 -15 76 -21 377 -14 602 2 49
-1 81 -9 91 -11 12 -4 20 40 47 160 98 354 282 428 405 13 22 28 42 32 43 4 2
8 11 8 20 0 8 6 23 14 31 18 21 69 169 92 266 10 42 19 102 29 190 1 11 3 23
4 26 0 3 13 4 29 2 15 -1 52 -5 82 -7 30 -3 78 -8 105 -11 28 -3 75 -7 105
-10 30 -2 71 -6 90 -9 19 -2 67 -7 106 -11 70 -6 132 -12 209 -19 22 -3 72 -7
110 -10 39 -4 90 -8 115 -10 25 -3 90 -8 145 -11 92 -6 158 -13 161 -18 118
-190 217 -327 247 -344 46 -26 112 -13 150 30 35 40 26 109 -24 174 -21 29
-39 57 -39 63 0 5 -4 10 -8 10 -8 0 -35 49 -33 60 1 2 49 5 108 5 60 1 117 4
128 8 11 4 31 23 43 43 33 51 27 114 -16 157 -29 29 -36 31 -106 31 l-76 1 29
26 c16 14 45 36 64 48 25 15 38 34 49 67 13 43 13 50 -3 83 -23 48 -52 73 -88
77 -33 4 -101 -21 -101 -36 0 -6 -5 -10 -11 -10 -21 0 -125 -87 -217 -182 -62
-63 -67 -66 -106 -62 -22 2 -81 6 -131 9 -49 3 -108 7 -130 9 -22 3 -78 8
-125 11 -47 4 -98 9 -115 10 -16 2 -59 6 -95 9 -71 7 -158 15 -205 21 -16 1
-64 6 -105 10 -41 4 -88 9 -105 10 -79 9 -192 18 -207 17 -28 -1 -28 0 -44
133 -4 33 -7 70 -8 83 0 12 -5 22 -9 22 -5 0 -6 4 -3 8 3 4 1 26 -4 48 -5 21
-11 50 -14 64 -10 51 -15 69 -50 195 -16 60 -30 104 -36 120 -5 11 -20 53 -34
93 l-26 73 78 35 c42 20 109 50 147 69 39 18 97 45 130 59 33 15 67 31 75 37
8 5 26 14 40 19 14 6 34 15 45 20 76 35 220 100 235 105 3 1 14 5 25 10 137
56 326 117 440 140 129 27 195 36 292 39 l113 4 34 -71 c113 -241 127 -261
186 -259 38 1 86 27 106 57 31 47 26 88 -22 182 -24 48 -45 92 -48 99 -4 12
164 11 249 -2 22 -3 68 -7 102 -9 56 -3 64 -1 88 23 54 54 65 114 29 169 -22
34 -150 60 -326 66 l-67 2 22 21 c13 12 33 27 45 33 46 24 68 86 51 143 -13
46 -70 82 -119 75 -61 -8 -173 -88 -299 -215 l-73 -74 -74 -3 c-41 -2 -89 -6
-107 -9 -17 -3 -54 -8 -82 -11 -117 -15 -454 -111 -562 -160 -17 -8 -34 -15
-37 -15 -3 0 -48 -18 -98 -41 -51 -22 -106 -47 -123 -54 -16 -7 -66 -30 -110
-50 -109 -51 -189 -87 -260 -119 -33 -15 -74 -34 -90 -41 -17 -7 -50 -22 -75
-33 l-46 -19 -18 46 c-19 45 -36 86 -80 186 -13 28 -37 84 -55 126 l-33 76 63
94 c79 116 81 120 118 196 72 150 108 304 106 448 -2 110 -17 177 -61 274
-180 394 -803 751 -1287 738 -38 -1 -69 -3 -70 -3z m248 -248 c49 -8 174 -43
197 -56 10 -6 22 -10 28 -10 23 0 271 -128 290 -150 3 -3 17 -13 32 -23 52
-33 166 -133 218 -192 50 -57 112 -148 110 -160 0 -3 6 -18 14 -33 29 -55 34
-77 39 -183 2 -36 -3 -95 -11 -130 -7 -35 -14 -70 -14 -76 -1 -7 -4 -13 -8
-13 -4 0 -7 -6 -7 -13 0 -20 -59 -137 -100 -199 -85 -126 -196 -242 -318 -333
-22 -17 -42 -33 -45 -36 -8 -10 -134 -86 -187 -112 -54 -28 -155 -64 -195 -71
-15 -2 -31 -7 -35 -9 -33 -20 -326 -29 -433 -14 -79 11 -216 52 -293 86 -196
88 -356 254 -421 436 -4 11 -6 20 -5 20 1 0 -3 10 -9 22 -18 33 -38 150 -36
213 1 45 6 89 19 150 3 18 29 88 38 105 6 11 11 22 12 25 1 14 79 140 87 140
4 0 8 5 8 10 0 16 94 117 183 197 55 50 214 156 306 204 89 47 113 71 115 119
1 24 8 33 36 47 91 44 245 59 385 39z m780 -1866 c36 -85 70 -165 75 -177 24
-55 31 -73 63 -163 33 -89 96 -288 113 -355 4 -16 8 -34 10 -40 1 -5 5 -21 7
-35 3 -14 6 -25 7 -25 1 0 3 -11 5 -25 2 -14 8 -47 13 -75 10 -50 23 -142 26
-180 1 -19 -5 -20 -104 -18 -58 1 -157 4 -220 8 -63 3 -161 8 -217 10 -56 2
-107 6 -112 9 -5 4 -12 2 -15 -3 -3 -4 -24 -5 -47 -1 -41 8 -1191 5 -1301 -3
-32 -2 -58 -2 -58 0 0 17 95 163 159 244 111 140 172 207 409 449 l173 177 52
2 c29 1 66 4 82 6 17 2 50 6 74 9 62 8 221 51 299 82 123 49 232 115 353 213
40 33 77 57 81 53 4 -4 36 -77 73 -162z m-270 -1314 c169 -7 243 -10 445 -21
69 -4 130 -7 137 -8 8 0 11 -16 8 -51 -18 -215 -110 -406 -269 -559 -63 -62
-172 -147 -216 -169 -14 -7 -27 -16 -30 -19 -6 -7 -249 -128 -305 -151 -171
-71 -328 -125 -415 -143 -8 -2 -15 -4 -15 -6 0 -1 -9 -3 -20 -4 -11 -2 -36 -6
-55 -10 -62 -13 -233 -12 -295 2 -113 26 -240 100 -311 183 -12 14 -32 36 -44
50 -33 37 -80 107 -80 118 0 6 -3 12 -8 14 -16 7 -104 203 -116 260 -3 13 -10
41 -16 63 -28 112 -30 252 -6 365 3 14 9 39 12 55 l5 30 112 0 c62 0 148 2
192 5 108 7 1090 4 1290 -4z"/>
<path d="M4514 7973 c-68 -13 -106 -131 -60 -184 31 -36 65 -53 99 -51 67 5
117 57 117 122 0 45 -38 98 -80 110 -36 10 -40 10 -76 3z"/>
<path d="M3577 7605 c-44 -15 -60 -31 -75 -72 -21 -62 6 -125 63 -149 19 -8
45 -12 57 -10 13 3 28 5 35 5 13 1 67 56 69 71 1 6 2 11 4 13 8 10 7 46 -4 71
-27 63 -87 92 -149 71z"/>
<path d="M4495 7487 c-33 -12 -61 -25 -63 -29 -2 -5 -10 -8 -19 -8 -17 0 -196
-87 -334 -162 -379 -207 -350 -185 -348 -266 3 -137 104 -259 245 -295 50 -13
165 -15 219 -3 62 12 71 15 120 33 248 90 361 267 358 564 -1 108 -10 146 -38
165 -37 24 -75 24 -140 1z m-1 -254 c-8 -102 -30 -157 -82 -211 -43 -44 -135
-98 -179 -105 -10 -1 -23 -6 -30 -10 -19 -12 -120 -20 -168 -13 -47 7 -115 59
-115 87 0 12 176 118 254 154 11 5 23 12 26 15 10 11 273 137 292 139 3 1 4
-25 2 -56z"/>
</g>
</svg>
